<svg xmlns="http://www.w3.org/2000/svg" xmlns:xlink="http://www.w3.org/1999/xlink" version="1.1" x="0px" y="0px" viewBox="0 0 90 112.5" enable-background="new 0 0 90 90" xml:space="preserve"><path fill="#000000" d="M86.044,56.376c0-0.001,0-0.003,0-0.004v-0.019c-0.006-0.068-0.016-0.135-0.021-0.203  C83.417,22.443,63.869,7.279,45.614,7.21c-0.041,0-0.08,0-0.121,0c-0.164,0-0.329,0.011-0.493,0.013  c-0.165-0.002-0.33-0.013-0.494-0.013c-0.04,0-0.079,0-0.12,0C26.13,7.279,6.583,22.443,3.977,56.15  c-0.006,0.068-0.015,0.135-0.021,0.203v0.019c0,0.001,0,0.003,0,0.004l0,0v2.433c0,2.695,0.965,4.996,2.888,6.885l10.271,10.089  c0.668,0.656,1.582,0.864,2.468,0.563c0.887-0.303,1.483-1.023,1.612-1.951l3.732-26.824c0.145-1.041-0.361-2.009-1.3-2.484  c-0.939-0.475-2.019-0.311-2.772,0.423L15.42,51.17c-0.803,0.836-2.005,1.036-3.036,0.504c-1.031-0.533-1.564-1.628-1.347-2.768  C15.649,24.738,31.156,13.515,45,13.255c13.844,0.26,29.351,11.483,33.962,35.651c0.217,1.14-0.316,2.234-1.346,2.768  c-1.031,0.532-2.232,0.332-3.037-0.504l-5.434-5.661c-0.754-0.733-1.834-0.897-2.773-0.423c-0.939,0.476-1.445,1.443-1.301,2.484  l3.732,26.824c0.129,0.928,0.726,1.648,1.613,1.951c0.887,0.301,1.799,0.093,2.467-0.563l10.271-10.089  c1.923-1.889,2.889-4.189,2.889-6.885V56.376L86.044,56.376z"/></svg>